<svg style="margin-left: -1px;" width="19" height="12" viewBox="0 0 19 12" fill="none" xmlns="http://www.w3.org/2000/svg">
<path d="M7.5399 8.53275H3.65622L2.86607 10.9921C2.84388 11.0844 2.75919 11.1479 2.66427 11.1434H0.697235C0.585047 11.1434 0.545829 11.0817 0.579579 10.9585L3.94201 1.31461C3.9756 1.21375 4.00927 1.11516 4.04287 0.986173C4.08693 0.761876 4.10943 0.533907 4.11013 0.305313C4.10201 0.248438 4.14162 0.195703 4.19849 0.187578C4.20826 0.186172 4.2181 0.186172 4.22779 0.187578H6.90092C6.9792 0.187578 7.02404 0.215625 7.03545 0.271641L10.8518 10.9752C10.8854 11.0874 10.8518 11.1434 10.7509 11.1433H8.5653C8.48764 11.1519 8.41569 11.1015 8.39717 11.0256L7.5399 8.53275ZM4.26154 6.45915H6.91787L5.58967 2.10477L4.26154 6.45915Z" fill="#12141D"/>
<path d="M13.7268 7.57558C13.7673 7.90331 13.8762 8.21886 14.0462 8.50191C14.2342 8.78214 14.5002 9.00136 14.8112 9.13238C15.2327 9.3148 15.6886 9.4041 16.1477 9.39433C16.512 9.38738 16.875 9.34753 17.2321 9.27527C17.5516 9.23214 17.8646 9.15058 18.1645 9.03222C18.2204 8.98761 18.2485 9.01542 18.2485 9.11628V10.7135C18.2512 10.757 18.2426 10.8004 18.2233 10.8396C18.2041 10.8701 18.1782 10.896 18.1476 10.9152C17.815 11.0625 17.465 11.1668 17.106 11.2255C16.6184 11.3171 16.1227 11.3593 15.6265 11.3516C14.3811 11.3516 13.1298 10.9766 12.3145 9.9898C11.6585 9.19582 11.3727 8.11284 11.373 7.09808C11.3734 5.99964 11.7115 4.86596 12.4154 4.01307C13.1821 3.08408 14.2456 2.69385 15.4248 2.69385C16.4327 2.69385 17.4991 3.04236 18.1484 3.84494C18.6956 4.52135 18.9697 5.44604 18.9722 6.30792C18.9722 6.55456 18.9637 6.7787 18.947 6.98042C18.9302 7.18214 18.9162 7.32784 18.9049 7.41753C18.8959 7.49425 18.8204 7.57722 18.7432 7.57722C18.6759 7.57722 18.5888 7.57026 18.409 7.57722L13.7268 7.57558ZM13.7268 6.04401H15.9291C16.1981 6.04401 16.3971 6.0412 16.5259 6.03557C16.6122 6.02698 16.6955 5.99932 16.7698 5.95479V5.85393C16.7664 5.72245 16.7437 5.59214 16.7025 5.46729C16.516 4.87776 15.9586 4.48549 15.3407 4.50901C14.7626 4.47409 14.2184 4.78409 13.9537 5.29917C13.8386 5.53362 13.762 5.7851 13.7268 6.04401Z" fill="#12141D"/>
</svg>
