<svg width="73" height="70" viewBox="0 0 73 70" fill="none" xmlns="http://www.w3.org/2000/svg">
<path d="M14.8703 4.13233C17.9869 4.65276 25.8876 9.01807 25.4168 16.2356M25.4168 16.2356C25.2826 18.2941 25.0906 20.9652 22.7343 22.9175C20.2697 24.9594 15.3375 20.0807 25.4168 16.2356ZM25.4168 16.2356C31.1211 14.2288 43.2925 13.2901 46.3443 25.5901C48.2178 35.2804 43.4232 46.9584 40.8512 54.6583C46.7788 45.4157 61.7113 34.6111 69.7087 33.6089" stroke="#FED546" stroke-width="3"/>
<path d="M15.9116 7.72543L15.0291 3.93763L18.8267 3.09829L18.5543 1.92932L13.5847 3.0277L14.7397 7.98448L15.9116 7.72543Z" fill="#FED546"/>
<path d="M50.7904 65.4271C50.7236 64.3643 50.2236 61.5462 48.7581 58.7754" stroke="#FED546" stroke-width="3"/>
<path d="M68.4524 65.3191C65.6115 62.2671 58.4138 55.7598 52.3503 54.1463" stroke="#FED546" stroke-width="3"/>
<path d="M26.2685 4.41973C27.7062 4.33857 30.5292 7.35779 29.6686 10.3576" stroke="#FED546" stroke-width="3"/>
</svg>
