<svg width="86" height="84" viewBox="0 0 86 84" fill="none" xmlns="http://www.w3.org/2000/svg">
<path d="M69.0582 4.99535C65.3229 5.61907 55.8542 10.8508 56.4184 19.5008M56.4184 19.5008C56.5793 21.9679 56.8094 25.1691 59.6334 27.5088C62.587 29.9561 68.4982 24.1091 56.4184 19.5008ZM56.4184 19.5008C49.582 17.0957 34.9948 15.9707 31.3373 30.7119C29.092 42.3255 34.8382 56.3213 37.9206 65.5494C30.8166 54.4724 12.9204 41.5234 3.33571 40.3222" stroke="#FED546" stroke-width="3"/>
<path d="M67.8098 9.30162L68.8675 4.76205L64.3162 3.75612L64.6426 2.35513L70.5986 3.67151L69.2144 9.61209L67.8098 9.30162Z" fill="#FED546"/>
<path d="M26.009 78.4559C26.089 77.1822 26.6883 73.8048 28.4447 70.4841" stroke="#FED546" stroke-width="3"/>
<path d="M4.8413 78.3261C8.24607 74.6684 16.8723 66.8695 24.1393 64.9358" stroke="#FED546" stroke-width="3"/>
<path d="M55.3976 5.34016C53.6747 5.2429 50.2912 8.86138 51.3227 12.4565" stroke="#FED546" stroke-width="3"/>
</svg>
