<svg width="16" height="16" viewBox="0 0 16 16" fill="none" xmlns="http://www.w3.org/2000/svg">
<path d="M12.2082 5.49687C13.0232 4.96125 13.5622 4.03906 13.5622 2.99344C13.5622 1.34281 12.2191 0 10.5685 0H5.43223C3.7816 0 2.43848 1.34281 2.43848 2.99344C2.43848 4.03906 2.97754 4.96125 3.79254 5.49687C2.97754 6.03218 2.43848 6.95437 2.43848 7.99999C2.43848 9.04562 2.97754 9.9678 3.79254 10.5034C2.97754 11.0384 2.43848 11.9609 2.43848 13.0066C2.43848 14.6572 3.78879 16 5.44817 16C7.12567 16 8.49067 14.6425 8.49067 12.9741V10.2134C9.02254 10.6981 9.7291 10.9934 10.5035 10.9934H10.5685C12.2191 10.9934 13.5622 9.65062 13.5622 7.99999C13.5622 6.95437 13.0232 6.03218 12.2082 5.49687ZM8.49067 0.980624H10.5685C11.6785 0.980624 12.5816 1.88344 12.5816 2.99344C12.5816 4.10343 11.6785 5.00656 10.5685 5.00656H8.49067V0.980624ZM3.4191 2.99344C3.4191 1.88344 4.32223 0.980624 5.43223 0.980624H7.51004V5.00656H5.43223C4.32223 5.00656 3.4191 4.10343 3.4191 2.99344ZM3.4191 7.99999C3.4191 6.89 4.32223 5.98718 5.43223 5.98718H7.51004V10.0131H5.41942C4.31535 10.0062 3.4191 9.10562 3.4191 7.99999ZM7.51004 12.9741C7.51004 14.1019 6.58504 15.0194 5.44817 15.0194C4.32941 15.0194 3.4191 14.1166 3.4191 13.0066C3.4191 11.8966 4.32223 10.9934 5.43223 10.9934H7.51004V12.9741ZM10.5685 10.0131H10.5035C9.39348 10.0131 8.49067 9.10999 8.49067 7.99999C8.49067 6.89 9.39348 5.98718 10.5035 5.98718H10.5685C11.6785 5.98718 12.5816 6.89 12.5816 7.99999C12.5816 9.10999 11.6785 10.0131 10.5685 10.0131Z" fill="#12141D"/>
</svg>
