<svg width="12" height="13" viewBox="0 0 12 13" fill="none" xmlns="http://www.w3.org/2000/svg">
<path d="M2.65852 1.31548V11.7677C2.65852 11.8798 2.60758 11.9307 2.51586 11.9307H0.519141C0.427422 11.9307 0.386719 11.8798 0.386719 11.7677V1.31548C0.386719 1.22376 0.437657 1.18306 0.529375 1.18306H2.51594C2.57703 1.1729 2.6382 1.21361 2.64836 1.28493C2.65852 1.29517 2.65852 1.30533 2.65852 1.31548Z" fill="#12141D"/>
<path d="M8.52659 12.0938C7.77268 12.1039 7.01886 11.9511 6.33628 11.6354C5.69448 11.3399 5.16472 10.8509 4.798 10.2499C4.42105 9.62848 4.23768 8.85418 4.23768 7.92715C4.22753 7.17325 4.42105 6.42957 4.798 5.77762C5.18511 5.11543 5.74542 4.56535 6.41776 4.19856C7.13089 3.80121 7.98659 3.6077 8.99519 3.6077C9.04612 3.6077 9.11745 3.6077 9.20909 3.61786C9.30081 3.62801 9.40269 3.62801 9.52487 3.63825V0.419026C9.52487 0.347698 9.55542 0.306996 9.62675 0.306996H11.6948C11.7457 0.29684 11.7865 0.337542 11.7967 0.378323V0.398714V10.0972C11.7967 10.2805 11.8068 10.4843 11.8171 10.7084C11.8375 10.9223 11.8476 11.1261 11.8578 11.2993C11.8578 11.3706 11.8273 11.4317 11.756 11.4622C11.2262 11.6864 10.6659 11.8493 10.0954 11.9512C9.58605 12.0429 9.05636 12.0938 8.52659 12.0938ZM9.52495 10.0564V5.57395C9.43323 5.55356 9.34159 5.53317 9.24987 5.52301C9.13784 5.51286 9.02573 5.50262 8.9137 5.50262C8.51636 5.50262 8.11909 5.58411 7.76253 5.76746C7.41612 5.94067 7.12073 6.19535 6.89659 6.52137C6.67245 6.84739 6.56042 7.28543 6.56042 7.8152C6.55026 8.17176 6.61136 8.52833 6.73362 8.8645C6.8355 9.13958 6.98831 9.38403 7.19206 9.58778C7.38565 9.77114 7.61995 9.91379 7.88479 9.99528C8.15987 10.087 8.44511 10.1277 8.73034 10.1277C8.88315 10.1277 9.02581 10.1175 9.15823 10.1073C9.3105 10.0872 9.41159 10.0824 9.52495 10.0564Z" fill="#12141D"/>
</svg>
