<svg style="margin-left: -1px;" width="15" height="12" viewBox="0 0 15 12" fill="none" xmlns="http://www.w3.org/2000/svg">
<path d="M7.62309 9.38414H3.83341L3.05919 11.7782C3.0388 11.8699 2.95732 11.931 2.8656 11.9209H0.950367C0.838336 11.9209 0.807711 11.8598 0.838336 11.7375L4.11864 2.29374C4.14919 2.19187 4.17974 2.07984 4.22052 1.95757C4.2613 1.74366 4.28161 1.51952 4.28161 1.29538C4.27146 1.24444 4.31216 1.19351 4.3631 1.18335H4.39364H7.00161C7.08309 1.18335 7.12387 1.2139 7.13403 1.26483L10.8525 11.7579C10.883 11.8699 10.8525 11.9209 10.7506 11.9209H8.62145C8.55012 11.931 8.4788 11.8801 8.45848 11.8088L7.62309 9.38414ZM4.42427 7.31609H7.01184L5.70786 3.06796H5.68755L4.42427 7.31609Z" fill="#12141D"/>
<path d="M13.0735 2.9252C12.7373 2.93535 12.4113 2.80293 12.1668 2.56863C11.9325 2.31395 11.8103 1.97777 11.8204 1.63137C11.8103 1.28496 11.9427 0.959023 12.1871 0.724726C12.4317 0.490429 12.7576 0.368164 13.0938 0.368164C13.4911 0.368164 13.7967 0.490429 14.0208 0.724726C14.2449 0.969258 14.3672 1.2952 14.357 1.63137C14.3671 1.97777 14.2449 2.31395 14.0004 2.56863C13.7662 2.81316 13.4198 2.94559 13.0735 2.9252ZM11.9324 11.7679V3.92363C11.9324 3.82176 11.9732 3.78098 12.0649 3.78098H14.082C14.1737 3.78098 14.2144 3.83191 14.2144 3.92363V11.7679C14.2144 11.88 14.1736 11.9309 14.082 11.9309H12.0853C11.9834 11.9309 11.9324 11.8698 11.9324 11.7679Z" fill="#12141D"/>
</svg>
