<svg width="174" height="240" viewBox="0 0 174 240" fill="none" xmlns="http://www.w3.org/2000/svg">
<path d="M69.5357 69.7072C68.1194 63.6087 65.0688 57.9162 62.1718 52.5102C58.9701 46.5358 55.9559 40.9113 55.5426 35.4756C54.7334 24.8338 55.4215 10.9517 58.2966 0H57.9365C52.8683 12.5761 50.5488 24.7005 51.5323 37.6349C51.9769 43.4815 57.055 50.7586 61.9782 57.8139C64.8767 61.9676 67.7216 66.0444 69.5357 69.7072Z" fill="#DFAC42" fill-opacity="0.3"/>
<path d="M88.6463 129.295C86.572 123.289 84.2874 116.767 82.0722 110.841C76.6088 96.225 72.4892 82.4244 69.5357 69.7072C70.6671 71.9916 71.8531 74.3187 73.0672 76.7009L73.0674 76.7012C78.2045 86.781 83.8447 97.8478 87.9815 110.841C89.3134 115.024 89.0609 120.364 88.7841 126.214C88.7362 127.227 88.6875 128.255 88.6463 129.295Z" fill="#DFAC42" fill-opacity="0.3"/>
<path d="M87.0192 46.4176C84.1386 60.0397 82.8231 74.3301 83.8622 88.6655C84.5179 97.7126 86.6668 105.779 88.6298 113.147C90.1936 119.017 91.6395 124.445 92.1185 129.572C92.2845 131.349 93.0141 135.325 93.7206 139.175L93.7207 139.175C94.423 143.002 95.1025 146.705 95.1827 147.999C94.1601 145.334 92.5334 140.599 90.5957 134.959L90.5955 134.958L90.5948 134.956L90.5944 134.955L90.5795 134.912C89.9633 133.118 89.3157 131.233 88.6463 129.295C88.3243 137.41 88.4507 146.255 92.8691 154.242C96.8794 161.491 99.343 152.759 98.8552 141.147C98.7209 137.949 98.4071 133.874 97.9543 129.027C97.0528 119.377 95.585 106.51 93.8296 91.1228L87.9992 70.6427C87.0221 62.0776 86.7353 54.013 87.0192 46.4176Z" fill="#DFAC42" fill-opacity="0.3"/>
<path d="M87.0192 46.4176C90.5925 29.5201 96.5741 13.651 103.457 3.53031e-05H97.0162C91.5498 13.1295 87.6902 28.463 87.0192 46.4176Z" fill="#DFAC42" fill-opacity="0.3"/>
<path d="M0.015625 10.1235V14.8867C3.40283 23.8969 11.0233 34.4415 19.6705 46.4067C27.9775 57.9013 37.2322 70.7071 44.5914 84.7232C54.6632 103.905 63.1713 123.87 71.6811 143.839C78.9158 160.815 86.1517 177.794 94.3506 194.298C99.1791 204.018 103.786 212.519 107.841 218.635C109.862 221.682 111.816 224.245 113.659 226.085C115.357 227.78 117.533 229.454 119.995 229.503C120.713 229.518 121.365 229.566 121.974 229.612C123.958 229.76 125.483 229.874 127.311 228.65C131.788 225.651 129.432 210.692 126.944 194.903L126.944 194.903C125.919 188.397 124.872 181.751 124.271 175.743C118.063 113.626 122.52 70.8111 134.99 46.3276C144.373 27.9057 155.819 12.2369 172.145 3.53031e-05H161.037C146.767 10.2149 134.29 22.2473 125.743 39.0277C112.412 65.201 108.285 105.811 118.063 179.177C118.964 185.938 119.994 192.252 120.918 197.919L120.918 197.919C122.493 207.578 123.761 215.355 123.563 220.257C123.08 232.228 117.509 228.945 112.726 221.732C110.586 218.506 108.253 212.571 105.779 206.277C103.801 201.245 101.732 195.983 99.5997 191.69C90.4224 173.217 80.241 149.905 71.2493 129.317L71.2488 129.315L71.2485 129.315C70.8459 128.393 70.4456 127.476 70.0479 126.566C65.4166 115.964 61.1331 106.19 57.5269 98.3646C54.5598 91.9259 52.9779 89.0318 50.4968 84.4928L50.4966 84.4922L50.4962 84.4915L50.4952 84.4897L50.4951 84.4895L50.4904 84.481L50.4902 84.4805C49.9911 83.5676 49.4557 82.588 48.8653 81.4996C41.3337 67.615 32.7197 57.0615 24.4874 46.9754C15.1159 35.4938 6.23891 24.618 0.015625 10.1235Z" fill="#DFAC42" fill-opacity="0.3"/>
<path d="M174 58.211C165.663 64.4964 157.659 72.1974 151.161 81.3236C136.049 102.547 129.227 131.314 144.946 167.2C157.596 196.078 156.361 220.46 148.77 240H155.027C162.434 219.435 163.163 194.179 150.315 164.848C135.459 130.934 141.966 104.343 155.935 84.7232C161.134 77.4223 167.385 71.0649 174 65.6607V58.211Z" fill="#DFAC42" fill-opacity="0.3"/>
<path d="M174 105.342C168.191 109.63 165.291 116.665 164.479 125.401C163.943 127.019 163.462 128.743 163.041 130.578C159.547 145.809 163.208 178.812 174 208.366V178.355C167.566 159.216 163.127 139.95 164.479 125.401C166.71 118.665 169.884 113.78 173.576 110.459C173.717 110.332 173.858 110.208 174 110.086V105.342Z" fill="#DFAC42" fill-opacity="0.3"/>
<path d="M89.0574 240C85.3318 233.451 81.9862 225.977 78.9533 217.623C72.4266 199.644 67.4215 177.797 63.1406 152.729C56.1589 111.848 38.5658 87.3844 19.1068 73.5481C12.8105 69.0712 6.34366 65.7249 0.015625 63.2977V79.1557C5.22788 81.327 10.5271 84.1851 15.7103 87.8705C33.7421 100.692 50.6066 114.153 57.363 153.716C58.8152 162.219 60.0134 171.745 61.2209 181.345C63.5931 200.205 66.0011 219.349 70.4413 231.58C71.4926 234.476 72.5858 237.284 73.7246 240H89.0574Z" fill="#DFAC42" fill-opacity="0.3"/>
<path d="M39.0887 240C37.4909 226.278 37.3891 210.854 39.4234 193.654C44.2687 152.69 34.4159 129.293 19.1111 117.116C13.07 112.31 6.5348 110.27 0.015625 109.759V113.941C5.42279 115.442 10.7182 117.928 15.4618 121.703C28.5593 132.124 33.1136 164.64 28.3961 204.524C26.8536 217.565 26.6387 229.351 27.4516 240H39.0887Z" fill="#DFAC42" fill-opacity="0.3"/>
<path d="M18.7257 240C18.7228 224.425 15.1646 211.639 9.60404 201.334C6.82166 196.178 3.55456 191.675 0.015625 187.778V191.746C3.07118 194.841 5.81846 198.409 8.03619 202.519C12.9104 211.552 13.5169 224.455 11.1007 240H18.7257Z" fill="#DFAC42" fill-opacity="0.3"/>
</svg>
