<svg width="15" height="12" viewBox="0 0 15 12" fill="none" xmlns="http://www.w3.org/2000/svg">
<path d="M0.276367 10.7983V0.315459C0.276367 0.244131 0.306914 0.203428 0.378242 0.203428C0.551445 0.203428 0.714414 0.203427 0.948711 0.193271C1.19324 0.183115 1.44793 0.183115 1.72293 0.17288C1.99793 0.162646 2.2934 0.162724 2.60926 0.152489C2.92512 0.142255 3.23066 0.142334 3.53629 0.142334C4.37168 0.142334 5.06441 0.244208 5.63488 0.458115C6.14426 0.631318 6.61285 0.916553 6.99996 1.29351C7.32598 1.61952 7.58066 2.01679 7.74363 2.45483C7.89645 2.88272 7.97793 3.32077 7.97793 3.77921C7.97793 4.6553 7.77418 5.37866 7.36668 5.94913C6.95918 6.5196 6.38871 6.94749 5.72652 7.19202C5.03379 7.44671 4.26973 7.53843 3.43434 7.53843C3.1898 7.53843 3.02684 7.53843 2.92496 7.52827C2.82309 7.51812 2.68043 7.51812 2.48691 7.51812V10.7883C2.49707 10.8596 2.44613 10.9207 2.37488 10.9309C2.36473 10.9309 2.35449 10.9309 2.3341 10.9309H0.398477C0.317071 10.9307 0.276367 10.8899 0.276367 10.7983ZM2.49723 2.16952V5.59249C2.63988 5.60265 2.7723 5.61288 2.89457 5.61288H3.43449C3.83184 5.61288 4.2291 5.55179 4.60605 5.42952C4.93207 5.3378 5.2173 5.14429 5.44145 4.8896C5.65535 4.63491 5.75723 4.28851 5.75723 3.8403C5.76738 3.52452 5.6859 3.20866 5.52293 2.93366C5.34973 2.66882 5.10527 2.46507 4.8098 2.35296C4.43285 2.20015 4.02535 2.13905 3.6077 2.14921C3.34285 2.14921 3.10848 2.14921 2.91496 2.15936C2.71113 2.14913 2.56855 2.15937 2.49723 2.16952Z" fill="#12141D"/>
<path d="M14.3351 4.97104C14.0294 4.80807 13.7034 4.69596 13.3571 4.62463C12.9802 4.54315 12.6032 4.49221 12.2161 4.49221C12.0123 4.48205 11.7984 4.5126 11.6048 4.56354C11.4724 4.59408 11.3603 4.66541 11.2891 4.76729C11.2381 4.84877 11.2076 4.95064 11.2076 5.04236C11.2076 5.13408 11.2484 5.22572 11.3095 5.30721C11.4012 5.41924 11.5234 5.51096 11.6559 5.58229C11.8902 5.70455 12.1347 5.81658 12.3791 5.91846C12.9293 6.10182 13.459 6.35651 13.948 6.66213C14.2841 6.87604 14.5592 7.16135 14.7528 7.50768C14.9158 7.83369 14.9973 8.19026 14.9871 8.55697C14.9973 9.0358 14.8547 9.51455 14.5898 9.9119C14.3045 10.3194 13.9072 10.6352 13.4487 10.8185C12.9495 11.0324 12.3384 11.1446 11.6048 11.1446C11.1362 11.1446 10.6778 11.1038 10.2194 11.0121C9.86281 10.951 9.50625 10.8389 9.18023 10.6861C9.10891 10.6453 9.05797 10.5741 9.0682 10.4925V8.71994C9.0682 8.6894 9.07836 8.64861 9.10899 8.62822C9.13953 8.60783 9.17008 8.61807 9.2007 8.63838C9.59805 8.87268 10.0157 9.03572 10.4639 9.1376C10.851 9.23947 11.2585 9.29041 11.666 9.29041C12.0531 9.29041 12.3282 9.23947 12.5116 9.14776C12.6745 9.07643 12.7866 8.90322 12.7866 8.71986C12.7866 8.57721 12.7052 8.44479 12.5421 8.31236C12.3791 8.17994 12.0429 8.02713 11.5437 7.83354C11.0242 7.65018 10.5454 7.40565 10.0971 7.10002C9.78133 6.87588 9.5164 6.58049 9.32289 6.23408C9.15992 5.90807 9.07836 5.5515 9.08859 5.19494C9.08859 4.7569 9.21086 4.33916 9.435 3.96229C9.68969 3.55479 10.0666 3.22877 10.5047 3.02502C10.9835 2.78049 11.5845 2.66846 12.3079 2.66846C12.7255 2.66846 13.1534 2.699 13.5711 2.76018C13.8767 2.80096 14.1722 2.88244 14.4472 2.99447C14.488 3.00463 14.5287 3.04541 14.5491 3.08619C14.5592 3.12697 14.5694 3.16768 14.5694 3.20846V4.869C14.5694 4.90979 14.5491 4.95049 14.5185 4.97088C14.456 5.01283 14.3759 4.99143 14.3351 4.97104Z" fill="#12141D"/>
</svg>
