<svg width="18" height="13" viewBox="0 0 18 13" fill="none" xmlns="http://www.w3.org/2000/svg">
<path d="M4.93682 7.84847L2.81237 11.7987C2.768 11.8983 2.69042 11.9085 2.57995 11.9085H0.306128C0.262066 11.9085 0.237144 11.926 0.231441 11.8817C0.225191 11.8412 0.234097 11.7999 0.256363 11.7655L3.45972 6.50402L0.339331 1.22598C0.306128 1.18191 0.30066 1.14598 0.322691 1.11809C0.347535 1.08934 0.384409 1.07402 0.4223 1.0766H2.76253C2.81355 1.07379 2.86456 1.0823 2.91191 1.10152C2.95159 1.12402 2.98566 1.1552 3.01151 1.19277L5.10284 5.143H5.11948L7.1776 1.20934C7.19034 1.1684 7.21315 1.13129 7.24401 1.10144C7.28495 1.08066 7.33104 1.07199 7.37682 1.07652H9.55112C9.60213 1.06394 9.65369 1.09504 9.66627 1.14605C9.6751 1.18168 9.66252 1.21926 9.63416 1.24246L6.54698 6.33792L9.84994 11.7488C9.87111 11.7867 9.87705 11.8311 9.86658 11.8732C9.85541 11.9121 9.81682 11.8876 9.75041 11.8985H7.39354C7.22752 11.8985 7.11135 11.8927 7.04495 11.782L4.93682 7.84847Z" fill="#12141D"/>
<path d="M14.3975 12.1141C13.6336 12.1257 12.8767 11.967 12.1817 11.6493C11.5344 11.3497 10.9932 10.8607 10.6299 10.2468C10.2535 9.62183 10.0654 8.83893 10.0656 7.89823C10.0593 7.13643 10.254 6.38651 10.6299 5.72393C11.0171 5.04901 11.5866 4.49682 12.2731 4.13057C12.9922 3.73221 13.8608 3.53307 14.8789 3.53307C14.9341 3.53307 15.006 3.53581 15.0946 3.54135C15.1831 3.54706 15.2882 3.55534 15.41 3.56628V0.296511C15.41 0.219246 15.4432 0.180339 15.5096 0.180339H17.6009C17.649 0.173464 17.6936 0.206901 17.7005 0.255026C17.7017 0.263229 17.7017 0.271668 17.7005 0.279871V10.0892C17.7005 10.2774 17.7088 10.4821 17.7254 10.7033C17.742 10.9248 17.7558 11.1239 17.7668 11.3008C17.771 11.3714 17.7314 11.4373 17.6672 11.4668C17.1277 11.6918 16.5657 11.8588 15.9909 11.9647C15.4653 12.0617 14.9321 12.1117 14.3975 12.1141ZM15.41 10.056V5.52479C15.3203 5.5005 15.2286 5.48386 15.1361 5.47503C15.0231 5.46362 14.9095 5.45815 14.7959 5.45846C13.9972 5.46065 13.2149 5.81659 12.7627 6.48753C12.1799 7.35221 12.3032 8.8587 13.0614 9.59128C13.5842 10.0964 14.3518 10.1801 15.0449 10.1224C15.1686 10.1131 15.2909 10.0908 15.41 10.056Z" fill="#12141D"/>
</svg>
