<svg width="16" height="17" viewBox="0 0 16 17" fill="none" xmlns="http://www.w3.org/2000/svg">
<path d="M14.928 4.28918C14.2128 3.06278 13.2424 2.09158 12.0152 1.37718C10.7888 0.662776 9.4504 0.305176 8 0.305176C6.5496 0.305176 5.2112 0.662776 3.984 1.37718C2.7576 2.09158 1.7864 3.06278 1.072 4.28918C0.3576 5.51558 0 6.85478 0 8.30518C0 9.75558 0.3568 11.0948 1.072 12.3212C1.7872 13.5484 2.7576 14.5188 3.9848 15.2332C5.2112 15.9476 6.5496 16.3052 8 16.3052C9.4504 16.3052 10.7888 15.9476 12.016 15.2332C13.2424 14.5188 14.2136 13.5484 14.9288 12.3212C15.6432 11.0948 16 9.75558 16 8.30518C16 6.85478 15.6432 5.51558 14.928 4.28918ZM8 1.63318C9.6 1.63318 11.0176 2.14518 12.256 3.16838C11.52 4.10758 10.4272 4.88038 8.976 5.48838C8.1744 4.03798 7.3056 2.82678 6.3672 1.85638C6.9128 1.70758 7.4552 1.63318 8 1.63318ZM2.808 4.14518C3.4112 3.38758 4.1328 2.79638 4.9768 2.36918C5.9464 3.32998 6.8368 4.52918 7.6488 5.96918C6.0488 6.44918 4.3576 6.68918 2.576 6.68918C2.1176 6.68918 1.7712 6.67878 1.536 6.65718C1.7816 5.73958 2.2056 4.90278 2.808 4.14518ZM1.328 8.30518C1.328 8.26198 1.3304 8.20918 1.336 8.14518C1.3416 8.08118 1.344 8.02838 1.344 7.98518C1.5472 7.99638 1.8568 8.00118 2.2728 8.00118C4.4056 8.00118 6.3896 7.70758 8.224 7.12118C8.3736 7.41958 8.5288 7.75558 8.688 8.12918C7.632 8.36358 6.5488 8.93398 5.4392 9.84118C4.3296 10.7484 3.52 11.7028 3.008 12.7052C1.888 11.4356 1.328 9.96918 1.328 8.30518ZM8 14.9772C6.4848 14.9772 5.1248 14.5076 3.9192 13.57C4.4 12.6204 5.1384 11.7124 6.136 10.8492C7.1328 9.98518 8.1224 9.44678 9.104 9.23318C9.7216 10.9396 10.1384 12.7044 10.352 14.5292C9.5728 14.8276 8.7888 14.9772 8 14.9772ZM13.664 11.8092C13.1312 12.662 12.4432 13.3612 11.6 13.906C11.408 12.242 11.04 10.6204 10.4968 9.04118C11.2424 8.98838 11.9088 8.96118 12.4968 8.96118C13.136 8.96118 13.8456 8.98838 14.624 9.04118C14.5168 10.0332 14.1968 10.9556 13.664 11.8092ZM12.672 7.80918C11.744 7.80918 10.8856 7.84678 10.096 7.92118C9.8928 7.39878 9.712 6.96678 9.552 6.62518C11.2048 5.90038 12.3776 5.02038 13.0712 3.98518C14.0312 5.11638 14.5544 6.40678 14.6392 7.85718C13.9896 7.82518 13.3336 7.80918 12.672 7.80918Z" fill="#12141D"/>
</svg>
