<svg width="16" height="17" viewBox="0 0 16 17" fill="none" xmlns="http://www.w3.org/2000/svg">
<path d="M15.958 5.00923C15.9205 4.15909 15.783 3.57462 15.5861 3.06817C15.3829 2.53059 15.0704 2.0493 14.6609 1.64919C14.2608 1.24286 13.7763 0.927125 13.2449 0.727134C12.7356 0.530196 12.1541 0.392718 11.304 0.355235C10.4475 0.314577 10.1756 0.305176 8.0033 0.305176C5.83099 0.305176 5.55909 0.314577 4.70577 0.35206C3.85562 0.389543 3.27116 0.527144 2.76483 0.72396C2.22713 0.927125 1.74583 1.23969 1.34573 1.64919C0.939395 2.0493 0.623781 2.53377 0.423668 3.06512C0.226729 3.57462 0.0892508 4.15592 0.0517677 5.00606C0.0111103 5.86255 0.00170898 6.13446 0.00170898 8.30676C0.00170898 10.4791 0.0111103 10.751 0.0485933 11.6043C0.0860763 12.4544 0.223677 13.0389 0.420615 13.5454C0.623781 14.0829 0.939395 14.5642 1.34573 14.9643C1.74583 15.3707 2.2303 15.6864 2.76166 15.8864C3.27116 16.0833 3.85245 16.2208 4.70271 16.2583C5.55591 16.2959 5.82794 16.3052 8.00024 16.3052C10.1725 16.3052 10.4445 16.2959 11.2978 16.2583C12.1479 16.2208 12.7324 16.0833 13.2387 15.8864C14.314 15.4707 15.1641 14.6205 15.5799 13.5454C15.7767 13.0358 15.9143 12.4544 15.9518 11.6043C15.9893 10.751 15.9987 10.4791 15.9987 8.30676C15.9987 6.13446 15.9955 5.86255 15.958 5.00923ZM14.5172 11.5418C14.4827 12.3232 14.3515 12.7451 14.2421 13.0264C13.9732 13.7235 13.42 14.2767 12.723 14.5455C12.4417 14.6549 12.0167 14.7862 11.2383 14.8205C10.3944 14.8581 10.1413 14.8674 8.00647 14.8674C5.87165 14.8674 5.61537 14.8581 4.77451 14.8205C3.9931 14.7862 3.57114 14.6549 3.28984 14.5455C2.94297 14.4173 2.62723 14.2142 2.37095 13.9485C2.10528 13.6891 1.90211 13.3765 1.77391 13.0296C1.66451 12.7483 1.53326 12.3232 1.49895 11.545C1.46135 10.701 1.45207 10.4478 1.45207 8.31299C1.45207 6.17817 1.46135 5.92189 1.49895 5.08115C1.53326 4.29974 1.66451 3.87778 1.77391 3.59648C1.90211 3.24949 2.10528 2.93387 2.37413 2.67747C2.63346 2.41179 2.94602 2.20863 3.29301 2.08055C3.57432 1.97116 3.99945 1.8399 4.77768 1.80547C5.6216 1.76799 5.87482 1.75859 8.00952 1.75859C10.1475 1.75859 10.4006 1.76799 11.2415 1.80547C12.0229 1.8399 12.4449 1.97116 12.7262 2.08055C13.073 2.20863 13.3888 2.41179 13.645 2.67747C13.9107 2.93692 14.1139 3.24949 14.2421 3.59648C14.3515 3.87778 14.4827 4.30279 14.5172 5.08115C14.5546 5.92506 14.564 6.17817 14.564 8.31299C14.564 10.4478 14.5546 10.6979 14.5172 11.5418Z" fill="#12141D"/>
<path d="M8.00228 4.19702C5.73315 4.19702 3.89209 6.03796 3.89209 8.30721C3.89209 10.5765 5.73315 12.4174 8.00228 12.4174C10.2715 12.4174 12.1125 10.5765 12.1125 8.30721C12.1125 6.03796 10.2715 4.19702 8.00228 4.19702ZM8.00228 10.9734C6.53019 10.9734 5.3361 9.77943 5.3361 8.30721C5.3361 6.835 6.53019 5.64103 8.00228 5.64103C9.4745 5.64103 10.6685 6.835 10.6685 8.30721C10.6685 9.77943 9.4745 10.9734 8.00228 10.9734Z" fill="#12141D"/>
<path d="M13.235 4.03382C13.235 4.56361 12.8054 4.99318 12.2755 4.99318C11.7457 4.99318 11.3162 4.56361 11.3162 4.03382C11.3162 3.50391 11.7457 3.07446 12.2755 3.07446C12.8054 3.07446 13.235 3.50391 13.235 4.03382Z" fill="#12141D"/>
</svg>
